<svg width="256" height="256" viewBox="0 0 256 256" fill="none" xmlns="http://www.w3.org/2000/svg">
<rect width="256" height="256" rx="32" fill="#2487A3"/>
<path d="M220 188H192V256H220V188Z" fill="white"/>
<path d="M138 188H110V256H138V188Z" fill="white"/>
<path d="M210 164V104H120V164H116V184H138V174H192V184H214V164H210ZM152 124H142V164H138V116H152V124ZM172 124H162V164H158V116H172V124ZM192 124H182V164H178V116H192V124Z" fill="white"/>
<path d="M142 178V256H188V178H142ZM165 246C157.82 246 152 240.18 152 233C152 229.5 153.38 226.33 155.63 224C156.05 223.55 156.51 223.13 157 222.76C158.56 221.54 160.41 220.66 162.42 220.25L158.17 216L157 214.83L156.76 214.59C155.62 213.45 155 211.95 155 210.34V207.46C153.8 206.77 153 205.48 153 204C153 201.79 154.79 200 157 200C159.21 200 161 201.79 161 204C161 205.48 160.2 206.77 159 207.46V210.34C159 210.88 159.21 211.38 159.59 211.76L163 215.17V192H160.89L164.89 184L168.89 192H167V211.17L170.41 207.76C170.79 207.38 171 206.88 171 206.34V204H169.5V197H176.5V204H175V206.34C175 206.91 174.92 207.47 174.76 208C174.49 208.97 173.98 209.86 173.24 210.59L173 210.83L171.83 212L167.59 216.24C167.21 216.62 167 217.12 167 217.66V220.15C169.24 220.5 171.29 221.42 173 222.76C176.04 225.13 178 228.84 178 233C178 240.18 172.18 246 165 246Z" fill="white"/>
<path d="M174 233C174 237.97 169.97 242 165 242C160.03 242 156 237.97 156 233C156 228.72 158.99 225.13 163 224.22C163.64 224.08 164.31 224 165 224C165.69 224 166.36 224.08 167 224.22C171.01 225.13 174 228.72 174 233Z" fill="white"/>
</svg>
