<svg viewBox="0 0 12 12" xmlns="http://www.w3.org/2000/svg">
    <path
        d="M3.51509 0.0419627C2.87668 0.0720828 2.44071 0.173963 2.05959 0.323724C1.66515 0.477444 1.33082 0.683725 0.99818 1.01757C0.665536 1.35141 0.460694 1.68597 0.308053 2.08101C0.160331 2.46297 0.0602503 2.89929 0.0320501 3.53805C0.00384977 4.17682 -0.0023903 4.38214 0.000729736 6.0115C0.00384977 7.64087 0.0110498 7.84511 0.0420102 8.48519C0.0724905 9.12347 0.174011 9.55932 0.323773 9.94056C0.477735 10.335 0.683777 10.6692 1.01774 11.002C1.3517 11.3347 1.68603 11.5391 2.08203 11.692C2.46363 11.8394 2.90008 11.94 3.53873 11.968C4.17737 11.9959 4.38293 12.0024 6.01183 11.9993C7.64073 11.9962 7.84581 11.989 8.48578 11.9586C9.12574 11.9282 9.55931 11.826 9.94067 11.677C10.3351 11.5226 10.6696 11.317 11.0021 10.9829C11.3346 10.6488 11.5393 10.314 11.6918 9.91872C11.8397 9.53712 11.9401 9.10067 11.9679 8.46251C11.9958 7.82207 12.0024 7.61759 11.9993 5.98846C11.9962 4.35934 11.9889 4.1551 11.9585 3.51525C11.9281 2.87541 11.8265 2.44089 11.6768 2.05941C11.5226 1.66497 11.3168 1.33101 10.983 0.998006C10.6492 0.665005 10.3141 0.460404 9.91895 0.308244C9.53711 0.160523 9.1009 0.0598428 8.46225 0.0322427C7.82361 0.00464258 7.61805 -0.00243744 5.98855 0.000682569C4.35905 0.00380258 4.15505 0.0107626 3.51509 0.0419627ZM3.58517 10.8886C3.00016 10.8631 2.68252 10.7659 2.47083 10.6846C2.19051 10.5766 1.99083 10.446 1.77987 10.2371C1.56891 10.0282 1.4393 9.82776 1.32986 9.54804C1.24766 9.33636 1.14866 9.01907 1.1213 8.43407C1.09154 7.80179 1.0853 7.61195 1.08182 6.01006C1.07834 4.40818 1.08446 4.21858 1.11218 3.58606C1.13714 3.00153 1.23494 2.68353 1.31618 2.47197C1.42418 2.19129 1.55427 1.99197 1.76367 1.78113C1.97307 1.57029 2.17287 1.44045 2.45283 1.33101C2.66428 1.24845 2.98156 1.15029 3.56633 1.12245C4.19909 1.09245 4.38869 1.08645 5.99035 1.08297C7.59201 1.07949 7.78209 1.08549 8.41509 1.11333C8.99962 1.13877 9.31774 1.23561 9.52907 1.31733C9.80951 1.42533 10.0091 1.55505 10.2199 1.76481C10.4308 1.97457 10.5607 2.17365 10.6702 2.45421C10.7528 2.66505 10.851 2.98221 10.8786 3.56734C10.9087 4.2001 10.9156 4.38982 10.9184 5.99134C10.9213 7.59287 10.9157 7.78307 10.888 8.41535C10.8624 9.00035 10.7654 9.31812 10.684 9.53004C10.576 9.81024 10.4458 10.01 10.2362 10.2208C10.0267 10.4315 9.82715 10.5613 9.54707 10.6708C9.33586 10.7532 9.01822 10.8516 8.43393 10.8794C7.80117 10.9092 7.61157 10.9154 6.00931 10.9189C4.40705 10.9224 4.21805 10.9159 3.58529 10.8886M8.47654 2.79321C8.47677 2.93563 8.51924 3.07477 8.59856 3.19305C8.67789 3.31132 8.7905 3.40342 8.92217 3.45769C9.05384 3.51196 9.19865 3.52596 9.33827 3.49793C9.4779 3.46989 9.60608 3.40108 9.7066 3.3002C9.80711 3.19931 9.87545 3.07088 9.90298 2.93115C9.9305 2.79142 9.91596 2.64667 9.86121 2.5152C9.80646 2.38374 9.71395 2.27146 9.59538 2.19257C9.47682 2.11368 9.33752 2.07173 9.1951 2.07201C9.00419 2.07239 8.82124 2.14858 8.68649 2.28383C8.55174 2.41907 8.47622 2.6023 8.47654 2.79321ZM2.91928 6.00598C2.92264 7.70759 4.30457 9.08387 6.00583 9.08063C7.70709 9.07739 9.08434 7.69559 9.0811 5.99398C9.07786 4.29238 7.69557 2.91573 5.99407 2.91909C4.29257 2.92245 2.91604 4.30462 2.91928 6.00598ZM4.00001 6.00382C3.99923 5.60825 4.11576 5.22133 4.33488 4.89199C4.554 4.56265 4.86586 4.30569 5.23102 4.15358C5.59618 4.00148 5.99825 3.96108 6.38637 4.03748C6.7745 4.11389 7.13125 4.30367 7.41152 4.58282C7.69179 4.86198 7.88298 5.21798 7.96092 5.60579C8.03886 5.99361 8.00005 6.39583 7.84939 6.76159C7.69874 7.12735 7.443 7.44022 7.11453 7.66064C6.78606 7.88106 6.3996 7.99913 6.00403 7.99991C5.74137 8.00046 5.48117 7.94927 5.2383 7.84925C4.99543 7.74923 4.77464 7.60234 4.58854 7.41698C4.40245 7.23162 4.25469 7.01142 4.15371 6.76895C4.05272 6.52647 4.0005 6.26648 4.00001 6.00382Z" />
</svg>